# xmcd CD database file
#
# Track frame offsets:
#	150
#	26782
#	49235
#	67225
#	100628
#	131033
#	155371
#	173167
#	201709
#	230235
#
# Disc length: 3260 seconds
#
# Revision: 0
# Processed by: cddbd v1.5.1PL0 Copyright (c) Steve Scherf et al.
# Submitted via: CDex 1.51
#
DISCID=970cba0a
DTITLE=Enigma  - Mystic Mixes 2001
DYEAR=2001
DGENRE=New Age
TTITLE0=tnt for the brain (clubby mix)
TTITLE1=Sadness (us violent)(0)
TTITLE2=Mea Culpa (orthodox)(0)
TTITLE3=The Eyes of Truth (long remix)
TTITLE4=Long Nigh(remix)
TTITLE5=Light of your Smile
TTITLE6=Modern Crusaders
TTITLE7=Gravity of Love (remix 2)
TTITLE8=Mea Culpa (fade remix)
TTITLE9=Endless Quest
EXTD=YEAR: 2001
EXTT0=
EXTT1=
EXTT2=
EXTT3=
EXTT4=
EXTT5=
EXTT6=
EXTT7=
EXTT8=
EXTT9=
PLAYORDER=
